<?xml version="1.0" encoding="UTF-8"?><!DOCTYPE svg PUBLIC "-//W3C//DTD SVG 1.1//EN" "http://www.w3.org/Graphics/SVG/1.1/DTD/svg11.dtd"><svg xmlns="http://www.w3.org/2000/svg" xmlns:xlink="http://www.w3.org/1999/xlink"><defs/><symbol id="behance" viewBox="0 0 30 30">
<path d="M14.0556 14.825C15.1597 14.2778 15.7361 13.4497 15.7361 12.1609C15.7361 9.61922 13.9097 9 11.8021 9H6V21.7588H11.9653C14.2014 21.7588 16.3021 20.6464 16.3021 18.0543C16.3021 16.4522 15.5694 15.2678 14.0556 14.825ZM8.70486 11.1781H11.2431C12.2188 11.1781 13.0972 11.4625 13.0972 12.6361C13.0972 13.7197 12.4132 14.1554 11.4479 14.1554H8.70486V11.1781ZM11.5972 19.5915H8.70486V16.0778H11.6528C12.8438 16.0778 13.5972 16.5926 13.5972 17.8995C13.5972 19.1883 12.6979 19.5915 11.5972 19.5915ZM24.0451 10.9261H19.0556V9.66962H24.0451V10.9261ZM26 17.2731C26 14.5406 24.4583 12.2617 21.6632 12.2617C18.9479 12.2617 17.1042 14.3786 17.1042 17.1507C17.1042 20.0271 18.8507 22 21.6632 22C23.7917 22 25.1701 21.0064 25.8333 18.8931H23.6736C23.441 19.6815 22.4826 20.0991 21.7396 20.0991C20.3056 20.0991 19.5521 19.2279 19.5521 17.7483H25.9792C25.9896 17.5971 26 17.4351 26 17.2731ZM19.5556 16.1498C19.6354 14.9366 20.4132 14.177 21.5868 14.177C22.816 14.177 23.434 14.9258 23.5382 16.1498H19.5556Z" fill="currentColor"/>
</symbol><symbol id="codepen" viewBox="0 0 30 30">
<path d="M24.6205 11.2384L15.4799 5.14465C15.1679 4.95266 14.8349 4.9509 14.5201 5.14465L5.37945 11.2384C5.14508 11.3946 5 11.6737 5 11.9527V18.0464C5 18.3254 5.14508 18.6045 5.37949 18.7607L14.5201 24.8553C14.8321 25.0473 15.1651 25.0491 15.4799 24.8553L24.6205 18.7607C24.8549 18.6045 25 18.3254 25 18.0464V11.9527C25 11.6737 24.8549 11.3946 24.6205 11.2384ZM15.8594 7.46603L22.5893 11.9527L19.587 13.9616L15.8594 11.4728V7.46603ZM14.1406 7.46603V11.4728L10.4129 13.9616L7.4107 11.9527L14.1406 7.46603ZM6.71875 13.5598L8.87277 14.9996L6.71875 16.4393V13.5598ZM14.1406 22.5331L7.4107 18.0465L10.4129 16.0375L14.1406 18.5264V22.5331ZM15 17.0308L11.9642 14.9996L15 12.9683L18.0357 14.9996L15 17.0308ZM15.8594 22.5331V18.5264L19.587 16.0375L22.5893 18.0465L15.8594 22.5331ZM23.2812 16.4393L21.1272 14.9996L23.2812 13.5598V16.4393Z" fill="currentColor"/>
</symbol><symbol id="i18n" viewBox="0 0 30 30">
  <path id="rect29" fill="currentColor" d="m 7.2275975,4.287855 c -2.3609881,0 -4.2797877,1.9187989 -4.2797877,4.2797876 V 18.694684 c 0,2.074808 1.4851072,3.786159 3.4475931,4.17969 0.025972,0.764173 -0.1698062,1.804809 -0.4750866,2.439099 -0.1577231,0.327706 -0.025265,0.639281 0.1296756,0.815151 0.1549405,0.175867 0.3795482,0.295443 0.6548933,0.291268 1.7187987,-0.02605 3.9567308,-0.795998 5.2742448,-3.445755 l 10.924143,4.03e-4 c 2.361011,7.3e-5 4.279789,-1.918797 4.279789,-4.279785 V 8.5677132 c 0,-2.360989 -1.918798,-4.2797879 -4.279789,-4.2797879 z m 0,1.1567173 H 22.903273 c 1.740156,0 3.123072,1.3829155 3.123072,3.1230703 V 18.694684 c 0,1.740154 -1.382938,3.123124 -3.123072,3.123069 l -11.127012,-6.06e-4 c -0.19404,-4e-6 -0.393288,0.08625 -0.520206,0.195684 -0.126919,0.109434 -0.198817,0.229197 -0.252332,0.342068 -1.000848,2.110911 -2.4795091,2.745325 -3.8135574,2.877756 0.3077281,-0.876953 0.45721,-1.902131 0.3460791,-2.78568 C 7.5022803,22.176941 7.23045,21.837259 6.8928813,21.800438 5.3164699,21.628471 4.1045278,20.320489 4.1045278,18.694579 V 8.5675376 c 0,-1.7401546 1.3829155,-3.1230701 3.1230697,-3.1230701 z M 17.314868,8.7860525 a 0.57837875,0.57837875 0 0 0 -0.323186,0.3024642 l -4.190385,9.2412043 a 0.57837875,0.57837875 0 0 0 0.287925,0.76552 0.57837875,0.57837875 0 0 0 0.765688,-0.287759 L 18.045127,9.5662753 A 0.57837875,0.57837875 0 0 0 17.757202,8.8005898 0.57837875,0.57837875 0 0 0 17.314868,8.7860525 Z m 0.06453,10.2662305 C 17.093278,18.938296 16.841372,18.617876 17.0054,18.207405 l 2.429106,-6.078756 c 0.111173,-0.278203 0.373738,-0.42074 0.624816,-0.420675 0.254176,6.4e-5 0.519736,0.14289 0.63231,0.426193 l 2.415685,6.079356 c 0.141669,0.356527 -0.06898,0.716024 -0.345921,0.833329 -0.267389,0.11326 -0.684397,-0.0061 -0.810301,-0.319897 l -0.340853,-0.849598 c -0.0077,-0.01924 -0.02675,-0.02671 -0.04403,-0.02671 l -3.008772,1.7e-4 c -0.02355,2e-6 -0.04468,0.005 -0.05523,0.03118 l -0.339627,0.842976 c -0.130499,0.308409 -0.520339,0.431986 -0.783185,0.327269 z m 3.734869,-2.421003 -1.036175,-2.6024 c -0.0095,-0.0238 -0.02456,-0.0231 -0.03373,-1.72e-4 l -1.040975,2.599345 c -0.0036,0.009 8.08e-4,0.0152 0.0093,0.0152 l 2.095209,-5.9e-5 c 0.0076,0 0.0089,-0.0054 0.0064,-0.01187 z m -9.738101,-1.117492 c -0.482984,-0.157812 -0.970435,-0.534675 -1.4131848,-0.862095 -0.034415,-0.02545 -0.050261,-0.02576 -0.086826,-0.008 -0.5627419,0.338874 -1.1414663,0.759594 -1.7935156,0.92449 -0.1040492,0.02469 -0.2472072,0.03114 -0.3858651,-0.05292 -0.028847,-0.01749 -0.3768675,-0.235479 -0.3574225,-0.562582 0.00687,-0.173573 0.1003846,-0.290992 0.2266705,-0.397604 0.2970111,-0.239081 0.5945689,-0.320648 1.3721274,-0.76957 0.037365,-0.02157 0.018717,-0.07346 -0.013693,-0.09442 -0.3690809,-0.238621 -0.777465,-0.69717 -0.8719692,-0.877571 -0.051471,-0.09825 -0.1437853,-0.236844 -0.054389,-0.44508 0.078285,-0.182353 0.2886513,-0.403529 0.5324148,-0.457115 0.107901,-0.02372 0.2525009,-0.02164 0.3782512,0.11923 0.2948995,0.330368 0.5922118,0.657917 0.9870049,0.898406 0.041082,0.02503 0.067917,0.01537 0.091199,-0.01086 0.4511694,-0.508382 1.0579394,-0.973677 1.4210804,-2.210831 0.0107,-0.03646 0.01898,-0.03504 -0.01718,-0.03546 -0.506036,-0.0048 -4.4869356,-0.0041 -4.6050944,-0.01252 C 6.603115,10.646266 6.4440129,10.625636 6.2720249,10.444856 5.8968744,10.050536 6.2781849,9.6608937 6.3135559,9.6263472 6.4658589,9.4776276 6.567934,9.4643017 6.7374812,9.4567241 7.0331775,9.4435193 8.7323257,9.4423685 9.087837,9.4370987 9.169982,9.4391187 9.176106,9.4475577 9.175893,9.3677397 9.1758071,9.3303762 9.1751254,9.0589917 9.174661,8.9046189 9.1738938,8.6575623 9.2950897,8.4890458 9.3662935,8.4114163 9.5729528,8.1861132 9.9455628,8.1030442 10.254887,8.3788889 10.38752,8.4926519 10.46054,8.646841 10.465711,8.8186 c 0.0032,0.1291121 -0.0042,0.4557406 -0.0036,0.5576456 -0.003,0.052205 10e-4,0.054156 0.05147,0.057992 0.258162,0.016738 2.356878,0.00202 2.46646,0.014436 0.158483,0.01795 0.266892,0.060241 0.38231,0.1837565 0.289849,0.310175 0.151314,0.6892089 -0.04051,0.8888719 -0.106469,0.110825 -0.239778,0.152134 -0.498754,0.155459 -0.05109,0.0014 -0.07416,0.0063 -0.08783,0.05298 -0.354302,1.210874 -0.980461,2.094856 -1.787749,3.008485 -0.02681,0.02738 -0.03369,0.03444 -0.0082,0.06768 0.09767,0.127426 0.658903,0.534624 1.087493,0.663372 0.206509,0.06203 0.275893,0.305768 0.277728,0.464578 0.0025,0.217163 -0.160131,0.495729 -0.38695,0.62668 -0.160868,0.09288 -0.409011,-0.0035 -0.541441,-0.04672 z"/>
</symbol><symbol id="instagram" viewBox="0 0 30 30">
<path d="M15.0022 9.87225C12.1645 9.87225 9.87563 12.1617 9.87563 15C9.87563 17.8383 12.1645 20.1277 15.0022 20.1277C17.8399 20.1277 20.1288 17.8383 20.1288 15C20.1288 12.1617 17.8399 9.87225 15.0022 9.87225ZM15.0022 18.3337C13.1684 18.3337 11.6693 16.8387 11.6693 15C11.6693 13.1613 13.164 11.6663 15.0022 11.6663C16.8405 11.6663 18.3352 13.1613 18.3352 15C18.3352 16.8387 16.836 18.3337 15.0022 18.3337ZM21.5343 9.6625C21.5343 10.3275 20.9989 10.8585 20.3385 10.8585C19.6737 10.8585 19.1428 10.323 19.1428 9.6625C19.1428 9.00201 19.6782 8.46647 20.3385 8.46647C20.9989 8.46647 21.5343 9.00201 21.5343 9.6625ZM24.9297 10.8764C24.8539 9.27424 24.488 7.85507 23.3146 6.68582C22.1456 5.51657 20.7267 5.15062 19.1249 5.07029C17.4741 4.97657 12.5259 4.97657 10.8751 5.07029C9.27775 5.14616 7.8589 5.51211 6.68544 6.68136C5.51199 7.85061 5.15059 9.26978 5.07027 10.8719C4.97658 12.5232 4.97658 17.4724 5.07027 19.1236C5.14612 20.7258 5.51199 22.1449 6.68544 23.3142C7.8589 24.4834 9.27328 24.8494 10.8751 24.9297C12.5259 25.0234 17.4741 25.0234 19.1249 24.9297C20.7267 24.8538 22.1456 24.4879 23.3146 23.3142C24.4835 22.1449 24.8494 20.7258 24.9297 19.1236C25.0234 17.4724 25.0234 12.5276 24.9297 10.8764ZM22.797 20.8953C22.449 21.7701 21.7752 22.4439 20.8963 22.7965C19.58 23.3186 16.4568 23.1981 15.0022 23.1981C13.5477 23.1981 10.42 23.3142 9.1082 22.7965C8.23369 22.4484 7.55996 21.7745 7.20747 20.8953C6.68544 19.5788 6.80591 16.4549 6.80591 15C6.80591 13.5451 6.68991 10.4167 7.20747 9.10465C7.55549 8.22995 8.22922 7.55606 9.1082 7.2035C10.4244 6.68136 13.5477 6.80185 15.0022 6.80185C16.4568 6.80185 19.5845 6.68582 20.8963 7.2035C21.7708 7.5516 22.4445 8.22548 22.797 9.10465C23.319 10.4212 23.1985 13.5451 23.1985 15C23.1985 16.4549 23.319 19.5833 22.797 20.8953Z" fill="currentColor"/>
</symbol><symbol id="linkedin" viewBox="0 0 30 30">
<path d="M9.47679 24H5.33036V10.647H9.47679V24ZM7.40134 8.82555C6.07545 8.82555 5 7.72732 5 6.40139C5 5.7645 5.253 5.1537 5.70334 4.70335C6.15367 4.253 6.76446 4 7.40134 4C8.03821 4 8.649 4.253 9.09934 4.70335C9.54968 5.1537 9.80268 5.7645 9.80268 6.40139C9.80268 7.72732 8.72679 8.82555 7.40134 8.82555ZM24.9955 24H20.858V17.4999C20.858 15.9507 20.8268 13.9641 18.7022 13.9641C16.5464 13.9641 16.2161 15.6471 16.2161 17.3882V24H12.0741V10.647H16.0509V12.4685H16.1089C16.6625 11.4194 18.0147 10.3122 20.0321 10.3122C24.2286 10.3122 25 13.0756 25 16.665V24H24.9955Z" fill="currentColor"/>
</symbol><symbol id="mail" viewBox="0 0 30 30">
<path d="M24.3198 10.4264C24.1363 10.2747 19.9556 6.91273 19.0365 6.18199C18.1731 5.49184 16.6968 4 15 4C13.3123 4 11.8502 5.47332 10.9635 6.18199C10.0079 6.94176 5.84355 10.2912 5.68418 10.4222C5.47026 10.5981 5.29796 10.8192 5.17966 11.0696C5.06136 11.32 5.00001 11.5936 5 11.8705V22.125C5 23.1605 5.83945 24 6.875 24H23.125C24.1605 24 25 23.1605 25 22.125V11.8714C25 11.5954 24.939 11.3227 24.8214 11.0729C24.7038 10.8231 24.5325 10.6023 24.3198 10.4264ZM23.125 21.8906C23.125 21.9528 23.1003 22.0124 23.0564 22.0564C23.0124 22.1003 22.9528 22.125 22.8906 22.125H7.10938C7.04721 22.125 6.9876 22.1003 6.94365 22.0564C6.89969 22.0124 6.875 21.9528 6.875 21.8906V11.9823C6.875 11.9115 6.90688 11.8446 6.96195 11.8001C7.58188 11.2995 11.2117 8.38 12.1324 7.64801C12.842 7.08125 14.078 5.875 15 5.875C15.9255 5.875 17.1819 7.10035 17.8676 7.64801C18.7884 8.38008 22.4185 11.3001 23.0381 11.801C23.0653 11.8229 23.0872 11.8507 23.1022 11.8822C23.1172 11.9137 23.125 11.9482 23.125 11.9831V21.8906ZM21.8754 14.5584C22.0413 14.76 22.0107 15.0582 21.8072 15.2218C20.6754 16.1313 19.4918 17.081 19.0365 17.443C18.1498 18.1517 16.6877 19.625 15 19.625C13.3027 19.625 11.8247 18.1314 10.9635 17.443C10.5229 17.0927 9.33285 16.1378 8.19289 15.2217C7.98937 15.0581 7.95879 14.7599 8.12473 14.5584L8.72074 13.8346C8.88395 13.6364 9.17609 13.6064 9.37617 13.7672C10.4941 14.6657 11.6639 15.6045 12.1324 15.977C12.8181 16.5246 14.0745 17.75 15 17.75C15.922 17.75 17.158 16.5437 17.8676 15.977C18.3361 15.6045 19.506 14.6657 20.6239 13.7673C20.824 13.6065 21.1162 13.6366 21.2793 13.8348L21.8754 14.5584Z" fill="currentColor"/>
</symbol><symbol id="marker" viewBox="0 0 30 30">
<path d="M14.2292 23.5965C8.55352 15.3684 7.5 14.5239 7.5 11.5C7.5 7.35785 10.8579 4 15 4C19.1421 4 22.5 7.35785 22.5 11.5C22.5 14.5239 21.4465 15.3684 15.7708 23.5965C15.3983 24.1345 14.6016 24.1345 14.2292 23.5965ZM15 14.625C16.7259 14.625 18.125 13.2259 18.125 11.5C18.125 9.7741 16.7259 8.375 15 8.375C13.2741 8.375 11.875 9.7741 11.875 11.5C11.875 13.2259 13.2741 14.625 15 14.625Z" fill="currentColor"/>
</symbol><symbol id="whatsapp" viewBox="0 0 30 30">
<path d="M22.0045 7.90625C20.1339 6.03125 17.6429 5 14.9955 5C9.53125 5 5.08482 9.44643 5.08482 14.9107C5.08482 16.6562 5.54018 18.3616 6.40625 19.8661L5 25L10.2545 23.6205C11.7009 24.4107 13.3304 24.8259 14.9911 24.8259H14.9955C20.4554 24.8259 25 20.3795 25 14.9152C25 12.2679 23.875 9.78125 22.0045 7.90625ZM14.9955 23.1563C13.5134 23.1563 12.0625 22.7589 10.7991 22.0089L10.5 21.8304L7.38393 22.6473L8.21429 19.6071L8.01786 19.2946C7.19196 17.9821 6.75893 16.4688 6.75893 14.9107C6.75893 10.3705 10.4554 6.67411 15 6.67411C17.2009 6.67411 19.2679 7.53125 20.8214 9.08929C22.375 10.6473 23.3304 12.7143 23.3259 14.9152C23.3259 19.4598 19.5357 23.1563 14.9955 23.1563ZM19.5134 16.9866C19.2679 16.8616 18.0491 16.2634 17.8214 16.183C17.5938 16.0982 17.4286 16.058 17.2634 16.308C17.0982 16.558 16.625 17.1116 16.4777 17.2813C16.3348 17.4464 16.1875 17.4688 15.942 17.3438C14.4866 16.6161 13.5312 16.0446 12.5714 14.3973C12.317 13.9598 12.8259 13.9911 13.2991 13.0446C13.3795 12.8795 13.3393 12.7366 13.2768 12.6116C13.2143 12.4866 12.7188 11.2679 12.5134 10.7723C12.3125 10.2902 12.1071 10.3571 11.9554 10.3482C11.8125 10.3393 11.6473 10.3393 11.4821 10.3393C11.317 10.3393 11.0491 10.4018 10.8214 10.6473C10.5938 10.8973 9.95536 11.4955 9.95536 12.7143C9.95536 13.933 10.8438 15.1116 10.9643 15.2768C11.0893 15.442 12.7098 17.942 15.1964 19.0179C16.7679 19.6964 17.3839 19.7545 18.1696 19.6384C18.6473 19.567 19.6339 19.0402 19.8393 18.4598C20.0446 17.8795 20.0446 17.3839 19.9821 17.2813C19.9241 17.1696 19.7589 17.1071 19.5134 16.9866Z" fill="currentColor"/>
</symbol></svg>