<?xml version="1.0" encoding="UTF-8" standalone="no"?>
<!-- Created with Inkscape (http://www.inkscape.org/) -->

<svg
   width="169.32011mm"
   height="135.4953mm"
   viewBox="0 0 169.32011 135.4953"
   version="1.1"
   id="svg1"
   xmlns:xlink="http://www.w3.org/1999/xlink"
   xmlns="http://www.w3.org/2000/svg"
   xmlns:svg="http://www.w3.org/2000/svg">
  <defs
     id="defs1">
    <linearGradient
       id="linearGradient2">
      <stop
         style="stop-color:#f0b1b1;stop-opacity:1;"
         offset="0"
         id="stop2" />
      <stop
         style="stop-color:#c08fff;stop-opacity:1;"
         offset="1"
         id="stop3" />
    </linearGradient>
    <linearGradient
       xlink:href="#linearGradient2"
       id="linearGradient3"
       x1="46.999111"
       y1="225.44778"
       x2="180.8782"
       y2="127.62498"
       gradientUnits="userSpaceOnUse" />
  </defs>
  <g
     id="layer1"
     transform="translate(-26.783197,-98.671742)">
    <path
       d="m 130.70492,99.003564 c -4.49792,-1.29646 -9.18104,1.322916 -10.4775,5.820826 L 86.36075,223.35773 c -1.296459,4.49791 1.322916,9.18104 5.820836,10.4775 4.49791,1.29645 9.181044,-1.32292 10.477504,-5.82084 l 33.86667,-118.53333 c 1.29645,-4.49792 -1.32292,-9.18104 -5.82084,-10.477496 z m 21.32542,31.776456 c -3.30729,3.30729 -3.30729,8.67833 0,11.98562 l 23.62729,23.65375 -23.65375,23.65375 c -3.30729,3.30729 -3.30729,8.67834 0,11.98563 3.30729,3.30729 8.67833,3.30729 11.98563,0 l 29.63333,-29.63334 c 3.30729,-3.30729 3.30729,-8.67833 0,-11.98562 l -29.63333,-29.63333 c -3.3073,-3.3073 -8.67834,-3.3073 -11.98563,0 z m -81.147715,0 c -3.307292,-3.30729 -8.678334,-3.30729 -11.985625,0 l -29.633334,29.63333 c -3.307292,3.30729 -3.307292,8.67833 0,11.98563 L 58.897,202.03231 c 3.307291,3.30729 8.678333,3.30729 11.985625,0 3.307291,-3.30729 3.307291,-8.67833 0,-11.98563 l -23.65375,-23.62729 23.65375,-23.65375 c 3.307291,-3.30729 3.307291,-8.67833 0,-11.98562 z"
       id="path1"
       style="stroke-width:0.264583;fill-opacity:1;fill:url(#linearGradient3)" />
  </g>
</svg>
