<svg width="30" height="30" viewBox="0 0 30 30" fill="none" xmlns="http://www.w3.org/2000/svg">
<path d="M14.0556 14.825C15.1597 14.2778 15.7361 13.4497 15.7361 12.1609C15.7361 9.61922 13.9097 9 11.8021 9H6V21.7588H11.9653C14.2014 21.7588 16.3021 20.6464 16.3021 18.0543C16.3021 16.4522 15.5694 15.2678 14.0556 14.825ZM8.70486 11.1781H11.2431C12.2188 11.1781 13.0972 11.4625 13.0972 12.6361C13.0972 13.7197 12.4132 14.1554 11.4479 14.1554H8.70486V11.1781ZM11.5972 19.5915H8.70486V16.0778H11.6528C12.8438 16.0778 13.5972 16.5926 13.5972 17.8995C13.5972 19.1883 12.6979 19.5915 11.5972 19.5915ZM24.0451 10.9261H19.0556V9.66962H24.0451V10.9261ZM26 17.2731C26 14.5406 24.4583 12.2617 21.6632 12.2617C18.9479 12.2617 17.1042 14.3786 17.1042 17.1507C17.1042 20.0271 18.8507 22 21.6632 22C23.7917 22 25.1701 21.0064 25.8333 18.8931H23.6736C23.441 19.6815 22.4826 20.0991 21.7396 20.0991C20.3056 20.0991 19.5521 19.2279 19.5521 17.7483H25.9792C25.9896 17.5971 26 17.4351 26 17.2731ZM19.5556 16.1498C19.6354 14.9366 20.4132 14.177 21.5868 14.177C22.816 14.177 23.434 14.9258 23.5382 16.1498H19.5556Z" fill="currentColor"/>
</svg>
