<svg width="30" height="30" viewBox="0 0 30 30" fill="none" xmlns="http://www.w3.org/2000/svg">
<path d="M24.6205 11.2384L15.4799 5.14465C15.1679 4.95266 14.8349 4.9509 14.5201 5.14465L5.37945 11.2384C5.14508 11.3946 5 11.6737 5 11.9527V18.0464C5 18.3254 5.14508 18.6045 5.37949 18.7607L14.5201 24.8553C14.8321 25.0473 15.1651 25.0491 15.4799 24.8553L24.6205 18.7607C24.8549 18.6045 25 18.3254 25 18.0464V11.9527C25 11.6737 24.8549 11.3946 24.6205 11.2384ZM15.8594 7.46603L22.5893 11.9527L19.587 13.9616L15.8594 11.4728V7.46603ZM14.1406 7.46603V11.4728L10.4129 13.9616L7.4107 11.9527L14.1406 7.46603ZM6.71875 13.5598L8.87277 14.9996L6.71875 16.4393V13.5598ZM14.1406 22.5331L7.4107 18.0465L10.4129 16.0375L14.1406 18.5264V22.5331ZM15 17.0308L11.9642 14.9996L15 12.9683L18.0357 14.9996L15 17.0308ZM15.8594 22.5331V18.5264L19.587 16.0375L22.5893 18.0465L15.8594 22.5331ZM23.2812 16.4393L21.1272 14.9996L23.2812 13.5598V16.4393Z" fill="currentColor"/>
</svg>
