<?xml version="1.0" encoding="UTF-8" standalone="no"?>
<svg
   width="30"
   height="30"
   viewBox="0 0 30 30"
   fill="none"
   version="1.1"
   id="svg1"
   xmlns="http://www.w3.org/2000/svg"
   xmlns:svg="http://www.w3.org/2000/svg">
  <path
     id="rect29"
     fill="currentColor"
     d="m 7.2275975,4.287855 c -2.3609881,0 -4.2797877,1.9187989 -4.2797877,4.2797876 V 18.694684 c 0,2.074808 1.4851072,3.786159 3.4475931,4.17969 0.025972,0.764173 -0.1698062,1.804809 -0.4750866,2.439099 -0.1577231,0.327706 -0.025265,0.639281 0.1296756,0.815151 0.1549405,0.175867 0.3795482,0.295443 0.6548933,0.291268 1.7187987,-0.02605 3.9567308,-0.795998 5.2742448,-3.445755 l 10.924143,4.03e-4 c 2.361011,7.3e-5 4.279789,-1.918797 4.279789,-4.279785 V 8.5677132 c 0,-2.360989 -1.918798,-4.2797879 -4.279789,-4.2797879 z m 0,1.1567173 H 22.903273 c 1.740156,0 3.123072,1.3829155 3.123072,3.1230703 V 18.694684 c 0,1.740154 -1.382938,3.123124 -3.123072,3.123069 l -11.127012,-6.06e-4 c -0.19404,-4e-6 -0.393288,0.08625 -0.520206,0.195684 -0.126919,0.109434 -0.198817,0.229197 -0.252332,0.342068 -1.000848,2.110911 -2.4795091,2.745325 -3.8135574,2.877756 0.3077281,-0.876953 0.45721,-1.902131 0.3460791,-2.78568 C 7.5022803,22.176941 7.23045,21.837259 6.8928813,21.800438 5.3164699,21.628471 4.1045278,20.320489 4.1045278,18.694579 V 8.5675376 c 0,-1.7401546 1.3829155,-3.1230701 3.1230697,-3.1230701 z M 17.314868,8.7860525 a 0.57837875,0.57837875 0 0 0 -0.323186,0.3024642 l -4.190385,9.2412043 a 0.57837875,0.57837875 0 0 0 0.287925,0.76552 0.57837875,0.57837875 0 0 0 0.765688,-0.287759 L 18.045127,9.5662753 A 0.57837875,0.57837875 0 0 0 17.757202,8.8005898 0.57837875,0.57837875 0 0 0 17.314868,8.7860525 Z m 0.06453,10.2662305 C 17.093278,18.938296 16.841372,18.617876 17.0054,18.207405 l 2.429106,-6.078756 c 0.111173,-0.278203 0.373738,-0.42074 0.624816,-0.420675 0.254176,6.4e-5 0.519736,0.14289 0.63231,0.426193 l 2.415685,6.079356 c 0.141669,0.356527 -0.06898,0.716024 -0.345921,0.833329 -0.267389,0.11326 -0.684397,-0.0061 -0.810301,-0.319897 l -0.340853,-0.849598 c -0.0077,-0.01924 -0.02675,-0.02671 -0.04403,-0.02671 l -3.008772,1.7e-4 c -0.02355,2e-6 -0.04468,0.005 -0.05523,0.03118 l -0.339627,0.842976 c -0.130499,0.308409 -0.520339,0.431986 -0.783185,0.327269 z m 3.734869,-2.421003 -1.036175,-2.6024 c -0.0095,-0.0238 -0.02456,-0.0231 -0.03373,-1.72e-4 l -1.040975,2.599345 c -0.0036,0.009 8.08e-4,0.0152 0.0093,0.0152 l 2.095209,-5.9e-5 c 0.0076,0 0.0089,-0.0054 0.0064,-0.01187 z m -9.738101,-1.117492 c -0.482984,-0.157812 -0.970435,-0.534675 -1.4131848,-0.862095 -0.034415,-0.02545 -0.050261,-0.02576 -0.086826,-0.008 -0.5627419,0.338874 -1.1414663,0.759594 -1.7935156,0.92449 -0.1040492,0.02469 -0.2472072,0.03114 -0.3858651,-0.05292 -0.028847,-0.01749 -0.3768675,-0.235479 -0.3574225,-0.562582 0.00687,-0.173573 0.1003846,-0.290992 0.2266705,-0.397604 0.2970111,-0.239081 0.5945689,-0.320648 1.3721274,-0.76957 0.037365,-0.02157 0.018717,-0.07346 -0.013693,-0.09442 -0.3690809,-0.238621 -0.777465,-0.69717 -0.8719692,-0.877571 -0.051471,-0.09825 -0.1437853,-0.236844 -0.054389,-0.44508 0.078285,-0.182353 0.2886513,-0.403529 0.5324148,-0.457115 0.107901,-0.02372 0.2525009,-0.02164 0.3782512,0.11923 0.2948995,0.330368 0.5922118,0.657917 0.9870049,0.898406 0.041082,0.02503 0.067917,0.01537 0.091199,-0.01086 0.4511694,-0.508382 1.0579394,-0.973677 1.4210804,-2.210831 0.0107,-0.03646 0.01898,-0.03504 -0.01718,-0.03546 -0.506036,-0.0048 -4.4869356,-0.0041 -4.6050944,-0.01252 C 6.603115,10.646266 6.4440129,10.625636 6.2720249,10.444856 5.8968744,10.050536 6.2781849,9.6608937 6.3135559,9.6263472 6.4658589,9.4776276 6.567934,9.4643017 6.7374812,9.4567241 7.0331775,9.4435193 8.7323257,9.4423685 9.087837,9.4370987 9.169982,9.4391187 9.176106,9.4475577 9.175893,9.3677397 9.1758071,9.3303762 9.1751254,9.0589917 9.174661,8.9046189 9.1738938,8.6575623 9.2950897,8.4890458 9.3662935,8.4114163 9.5729528,8.1861132 9.9455628,8.1030442 10.254887,8.3788889 10.38752,8.4926519 10.46054,8.646841 10.465711,8.8186 c 0.0032,0.1291121 -0.0042,0.4557406 -0.0036,0.5576456 -0.003,0.052205 10e-4,0.054156 0.05147,0.057992 0.258162,0.016738 2.356878,0.00202 2.46646,0.014436 0.158483,0.01795 0.266892,0.060241 0.38231,0.1837565 0.289849,0.310175 0.151314,0.6892089 -0.04051,0.8888719 -0.106469,0.110825 -0.239778,0.152134 -0.498754,0.155459 -0.05109,0.0014 -0.07416,0.0063 -0.08783,0.05298 -0.354302,1.210874 -0.980461,2.094856 -1.787749,3.008485 -0.02681,0.02738 -0.03369,0.03444 -0.0082,0.06768 0.09767,0.127426 0.658903,0.534624 1.087493,0.663372 0.206509,0.06203 0.275893,0.305768 0.277728,0.464578 0.0025,0.217163 -0.160131,0.495729 -0.38695,0.62668 -0.160868,0.09288 -0.409011,-0.0035 -0.541441,-0.04672 z" />
</svg>
