<svg width="30" height="30" viewBox="0 0 30 30" fill="none" xmlns="http://www.w3.org/2000/svg">
<path d="M24.3198 10.4264C24.1363 10.2747 19.9556 6.91273 19.0365 6.18199C18.1731 5.49184 16.6968 4 15 4C13.3123 4 11.8502 5.47332 10.9635 6.18199C10.0079 6.94176 5.84355 10.2912 5.68418 10.4222C5.47026 10.5981 5.29796 10.8192 5.17966 11.0696C5.06136 11.32 5.00001 11.5936 5 11.8705V22.125C5 23.1605 5.83945 24 6.875 24H23.125C24.1605 24 25 23.1605 25 22.125V11.8714C25 11.5954 24.939 11.3227 24.8214 11.0729C24.7038 10.8231 24.5325 10.6023 24.3198 10.4264ZM23.125 21.8906C23.125 21.9528 23.1003 22.0124 23.0564 22.0564C23.0124 22.1003 22.9528 22.125 22.8906 22.125H7.10938C7.04721 22.125 6.9876 22.1003 6.94365 22.0564C6.89969 22.0124 6.875 21.9528 6.875 21.8906V11.9823C6.875 11.9115 6.90688 11.8446 6.96195 11.8001C7.58188 11.2995 11.2117 8.38 12.1324 7.64801C12.842 7.08125 14.078 5.875 15 5.875C15.9255 5.875 17.1819 7.10035 17.8676 7.64801C18.7884 8.38008 22.4185 11.3001 23.0381 11.801C23.0653 11.8229 23.0872 11.8507 23.1022 11.8822C23.1172 11.9137 23.125 11.9482 23.125 11.9831V21.8906ZM21.8754 14.5584C22.0413 14.76 22.0107 15.0582 21.8072 15.2218C20.6754 16.1313 19.4918 17.081 19.0365 17.443C18.1498 18.1517 16.6877 19.625 15 19.625C13.3027 19.625 11.8247 18.1314 10.9635 17.443C10.5229 17.0927 9.33285 16.1378 8.19289 15.2217C7.98937 15.0581 7.95879 14.7599 8.12473 14.5584L8.72074 13.8346C8.88395 13.6364 9.17609 13.6064 9.37617 13.7672C10.4941 14.6657 11.6639 15.6045 12.1324 15.977C12.8181 16.5246 14.0745 17.75 15 17.75C15.922 17.75 17.158 16.5437 17.8676 15.977C18.3361 15.6045 19.506 14.6657 20.6239 13.7673C20.824 13.6065 21.1162 13.6366 21.2793 13.8348L21.8754 14.5584Z" fill="currentColor"/>
</svg>
