<svg width="30" height="30" viewBox="0 0 30 30" fill="none" xmlns="http://www.w3.org/2000/svg">
<path d="M14.2292 23.5965C8.55352 15.3684 7.5 14.5239 7.5 11.5C7.5 7.35785 10.8579 4 15 4C19.1421 4 22.5 7.35785 22.5 11.5C22.5 14.5239 21.4465 15.3684 15.7708 23.5965C15.3983 24.1345 14.6016 24.1345 14.2292 23.5965ZM15 14.625C16.7259 14.625 18.125 13.2259 18.125 11.5C18.125 9.7741 16.7259 8.375 15 8.375C13.2741 8.375 11.875 9.7741 11.875 11.5C11.875 13.2259 13.2741 14.625 15 14.625Z" fill="currentColor"/>
</svg>
