<svg width="30" height="30" viewBox="0 0 30 30" fill="none" xmlns="http://www.w3.org/2000/svg">
<path d="M15.0022 9.87225C12.1645 9.87225 9.87563 12.1617 9.87563 15C9.87563 17.8383 12.1645 20.1277 15.0022 20.1277C17.8399 20.1277 20.1288 17.8383 20.1288 15C20.1288 12.1617 17.8399 9.87225 15.0022 9.87225ZM15.0022 18.3337C13.1684 18.3337 11.6693 16.8387 11.6693 15C11.6693 13.1613 13.164 11.6663 15.0022 11.6663C16.8405 11.6663 18.3352 13.1613 18.3352 15C18.3352 16.8387 16.836 18.3337 15.0022 18.3337ZM21.5343 9.6625C21.5343 10.3275 20.9989 10.8585 20.3385 10.8585C19.6737 10.8585 19.1428 10.323 19.1428 9.6625C19.1428 9.00201 19.6782 8.46647 20.3385 8.46647C20.9989 8.46647 21.5343 9.00201 21.5343 9.6625ZM24.9297 10.8764C24.8539 9.27424 24.488 7.85507 23.3146 6.68582C22.1456 5.51657 20.7267 5.15062 19.1249 5.07029C17.4741 4.97657 12.5259 4.97657 10.8751 5.07029C9.27775 5.14616 7.8589 5.51211 6.68544 6.68136C5.51199 7.85061 5.15059 9.26978 5.07027 10.8719C4.97658 12.5232 4.97658 17.4724 5.07027 19.1236C5.14612 20.7258 5.51199 22.1449 6.68544 23.3142C7.8589 24.4834 9.27328 24.8494 10.8751 24.9297C12.5259 25.0234 17.4741 25.0234 19.1249 24.9297C20.7267 24.8538 22.1456 24.4879 23.3146 23.3142C24.4835 22.1449 24.8494 20.7258 24.9297 19.1236C25.0234 17.4724 25.0234 12.5276 24.9297 10.8764ZM22.797 20.8953C22.449 21.7701 21.7752 22.4439 20.8963 22.7965C19.58 23.3186 16.4568 23.1981 15.0022 23.1981C13.5477 23.1981 10.42 23.3142 9.1082 22.7965C8.23369 22.4484 7.55996 21.7745 7.20747 20.8953C6.68544 19.5788 6.80591 16.4549 6.80591 15C6.80591 13.5451 6.68991 10.4167 7.20747 9.10465C7.55549 8.22995 8.22922 7.55606 9.1082 7.2035C10.4244 6.68136 13.5477 6.80185 15.0022 6.80185C16.4568 6.80185 19.5845 6.68582 20.8963 7.2035C21.7708 7.5516 22.4445 8.22548 22.797 9.10465C23.319 10.4212 23.1985 13.5451 23.1985 15C23.1985 16.4549 23.319 19.5833 22.797 20.8953Z" fill="currentColor"/>
</svg>
